<?xml version="1.0" standalone="no"?>
<!DOCTYPE svg PUBLIC "-//W3C//DTD SVG 20010904//EN"
 "http://www.w3.org/TR/2001/REC-SVG-20010904/DTD/svg10.dtd">
<svg version="1.0" xmlns="http://www.w3.org/2000/svg"
 width="260.000000pt" height="260.000000pt" viewBox="0 0 260.000000 260.000000"
 preserveAspectRatio="xMidYMid meet">
<metadata>
Created by potrace 1.14, written by Peter Selinger 2001-2017
</metadata>
<g transform="translate(0.000000,260.000000) scale(0.100000,-0.100000)"
fill="#000000" stroke="none">
<path d="M277 2023 c-3 -5 -4 -38 -4 -75 l0 -68 46 -1 c287 -3 1944 0 1948 4
4 5 6 75 4 130 -1 16 -55 17 -995 17 -547 0 -997 -3 -999 -7z"/>
<path d="M277 1823 c-3 -5 -4 -41 -4 -80 l0 -73 61 -1 c34 0 113 -1 176 -2
l115 -2 1 -570 1 -570 84 -2 85 -3 2 123 c1 67 2 127 2 132 0 6 -1 244 -3 530
l-2 520 -257 3 c-141 1 -259 -1 -261 -5z"/>
<path d="M855 1820 c-8 -12 -7 -1239 1 -1251 3 -5 1 -9 -4 -9 -6 0 -8 -9 -5
-20 5 -19 12 -20 82 -18 l76 3 0 570 0 570 69 3 c63 3 68 2 61 -15 -17 -39
-57 -149 -60 -163 -2 -8 -8 -33 -14 -55 -23 -88 -31 -214 -18 -320 3 -27 6
-50 7 -50 1 0 4 -13 6 -30 20 -125 110 -278 216 -367 52 -44 158 -113 158
-103 0 3 15 -2 33 -12 17 -9 36 -16 41 -15 4 2 15 -3 24 -10 12 -10 14 -10 8
0 -4 6 -2 12 3 12 6 0 11 -4 11 -9 0 -4 162 -9 360 -9 l360 -1 1 57 c2 244 -1
633 -4 639 -6 9 -129 9 -144 0 -5 -4 -9 -109 -8 -264 1 -142 -1 -263 -2 -269
-4 -12 -32 -12 -51 0 -6 4 -12 3 -12 -3 0 -6 -6 -8 -14 -5 -23 9 -146 10 -146
1 0 -4 -9 -3 -20 3 -15 8 -20 8 -20 -2 0 -10 -2 -10 -8 -1 -5 8 -13 9 -22 3
-9 -5 -19 -5 -27 2 -9 7 -13 7 -13 -2 0 -10 -3 -10 -14 -1 -10 8 -16 9 -21 1
-3 -6 -10 -8 -15 -5 -5 3 -31 8 -57 11 -26 3 -55 6 -63 7 -9 1 -40 15 -70 31
-54 28 -87 54 -138 110 -15 16 -34 37 -44 47 -26 27 -107 200 -113 239 -2 19
-9 53 -14 75 -6 22 -8 41 -6 44 2 2 0 12 -5 22 -7 12 -7 20 0 24 7 4 7 12 0
24 -5 10 -7 21 -3 24 3 4 7 21 9 39 2 18 7 44 10 58 4 14 8 30 9 36 6 25 57
124 84 160 49 68 181 191 192 180 2 -2 10 2 17 10 10 11 -41 13 -332 13 -210
1 -347 -3 -351 -9z"/>
<path d="M1615 1793 c-33 -19 -64 -35 -69 -36 -19 -4 -99 -76 -142 -128 -36
-44 -100 -171 -109 -219 -7 -32 -17 -116 -19 -155 -2 -34 11 -133 21 -155 3
-8 7 -18 8 -22 2 -5 4 -10 5 -13 1 -3 3 -8 4 -12 4 -16 40 -80 65 -113 61 -81
170 -162 264 -194 54 -19 82 -21 217 -20 85 1 165 2 177 3 l22 1 -2 247 -2
247 -73 0 c-41 1 -78 -1 -83 -4 -5 -3 -10 -80 -11 -170 l-3 -164 -63 3 c-86 3
-107 8 -162 36 -112 57 -198 223 -187 360 5 67 28 165 39 165 4 0 8 7 8 15 0
45 87 138 168 179 46 23 54 24 287 24 170 0 242 -3 248 -11 6 -9 10 -9 14 1 2
6 9 10 13 7 5 -3 14 4 20 16 7 11 14 18 17 15 4 -3 12 -1 19 5 7 5 15 6 17 2
3 -5 24 -7 47 -5 31 3 39 7 29 14 -11 8 -11 9 1 5 8 -2 15 -15 15 -28 0 -13 7
-30 15 -37 8 -8 10 -11 4 -8 -14 7 -24 -78 -12 -97 3 -6 3 -18 -2 -26 -5 -10
-3 -20 4 -26 15 -14 38 -13 44 3 2 7 0 12 -5 11 -19 -3 -33 2 -33 12 0 6 5 7
13 2 12 -8 17 -9 38 -12 6 0 7 -6 2 -13 -11 -18 -10 -32 2 -41 5 -5 1 -6 -11
-3 -14 5 -21 2 -21 -9 0 -8 7 -14 15 -13 8 2 17 -3 20 -11 3 -9 0 -12 -10 -9
-16 6 -18 -17 -4 -40 4 -6 4 -12 -1 -12 -4 0 -1 -5 7 -11 13 -9 13 -10 0 -6
-8 2 -14 10 -13 16 2 6 -2 11 -7 11 -6 0 -10 -4 -10 -10 0 -5 -5 -10 -11 -10
-8 0 -8 4 0 14 8 10 9 16 1 21 -6 3 -7 11 -4 17 4 6 2 8 -4 4 -6 -3 -10 -14
-10 -24 0 -9 -3 -26 -7 -36 -6 -15 -5 -17 5 -11 13 8 12 -5 -4 -65 -3 -8 -5
-21 -5 -27 -1 -7 -10 -13 -20 -13 -11 0 -22 -4 -26 -9 -3 -6 6 -6 25 -1 20 6
30 5 30 -2 0 -7 4 -7 13 -1 6 6 21 9 32 7 10 -1 25 2 31 7 8 7 14 6 17 -3 4
-10 6 -10 6 0 1 7 -5 15 -12 18 -10 3 -13 36 -12 132 1 70 -2 134 -7 143 -4 9
-4 19 0 23 3 4 7 34 7 66 0 45 -3 60 -15 63 -12 3 -15 -5 -15 -34 0 -20 4 -35
9 -32 5 4 6 1 2 -5 -4 -7 -2 -12 3 -12 6 0 11 -5 11 -11 0 -5 -4 -8 -9 -4 -6
3 -8 -4 -6 -15 3 -14 0 -18 -8 -13 -7 4 -5 -2 3 -12 14 -17 14 -18 -6 -7 -30
16 -48 39 -29 39 8 0 11 -5 8 -10 -3 -5 0 -8 7 -5 7 2 14 12 16 21 2 13 -2 16
-17 12 -11 -4 -19 -2 -19 5 0 6 4 9 9 6 5 -3 11 1 14 9 4 9 1 12 -9 8 -7 -3
-14 0 -14 7 0 6 5 8 10 5 6 -3 10 3 10 14 0 11 -4 23 -10 26 -5 3 -9 17 -8 30
1 13 6 21 10 19 4 -3 8 0 8 5 0 6 -19 11 -42 12 -24 0 -63 1 -88 3 -49 2 -45
-5 -49 79 -1 16 -22 17 -298 16 l-298 -1 -60 -35z m868 -148 c-3 -9 -8 -14
-10 -11 -3 3 -2 9 2 15 9 16 15 13 8 -4z m4 -260 c0 -8 -4 -12 -9 -9 -5 3 -6
10 -3 15 9 13 12 11 12 -6z m-3 -71 c3 -8 1 -14 -4 -14 -6 0 -10 5 -10 11 0 5
-5 7 -11 3 -8 -4 -7 -9 2 -15 8 -5 10 -9 4 -9 -5 0 -3 -6 5 -13 14 -11 14 -14
-2 -29 -20 -20 -25 -9 -5 11 10 11 8 12 -10 7 -23 -7 -40 8 -22 20 8 4 9 3 5
-4 -4 -7 -2 -12 4 -12 7 0 9 12 7 29 -3 16 -3 32 0 35 8 8 31 -4 37 -20z m6
-74 c0 -5 -4 -10 -10 -10 -5 0 -10 5 -10 10 0 6 5 10 10 10 6 0 10 -4 10 -10z"/>
<path d="M2463 1734 c4 -7 0 -17 -8 -24 -17 -14 -20 -36 -5 -45 6 -4 7 1 3 11
-5 13 -3 16 9 11 9 -3 24 1 35 10 16 13 16 14 1 9 -10 -3 -20 0 -24 6 -4 6 -3
8 2 5 6 -3 16 -1 24 5 13 8 12 9 -1 5 -9 -3 -22 0 -29 6 -9 8 -11 9 -7 1z"/>
<path d="M2520 1719 c0 -4 6 -9 13 -12 8 -3 14 0 14 7 0 7 -6 13 -14 13 -7 0
-13 -4 -13 -8z"/>
<path d="M2414 1468 c-3 -4 0 -8 5 -8 6 0 11 -7 11 -16 0 -8 -4 -13 -8 -10 -5
3 -9 -1 -9 -9 0 -9 7 -14 16 -13 9 2 15 -3 14 -9 -2 -7 2 -13 8 -13 7 0 8 7 4
18 -5 9 -8 29 -8 43 1 25 -21 36 -33 17z"/>
</g>
</svg>
