<svg width="58" height="44" viewBox="0 0 58 44" fill="none" xmlns="http://www.w3.org/2000/svg">
<path d="M10.2638 43.5725V10.4499H0V5.87809H15.202V43.5725H10.2638Z" fill="white"/>
<path d="M16.7513 43.5725V5.87809H37.2788C33.5348 7.71305 26.3566 13.7902 27.596 23.419C28.8354 33.0479 35.2131 37.57 38.2471 38.6274C39.2154 38.8451 41.5973 39.2619 43.379 39.1873C45.1606 39.1126 50.8347 39.1562 53.4491 39.1873V23.419H58V43.5725C58 43.5725 45.8964 44.5344 38.2471 43.5725C37.1905 43.4396 35.5484 43.1858 35.5484 43.1858L33.2097 42.3478C30.0691 40.6075 22.6017 36.3472 22.1175 24.1711C21.8754 20.9522 23.2 14.1074 25.3689 10.4499H21.2053V43.5725H16.7513Z" fill="white"/>
<path d="M46.9616 23.419H51.803V37.7877H41.5392C37.8598 37.1812 30.2132 32.7516 29.2421 24.7253C28.2261 16.328 33.0506 10.6054 36.02 8.49057L40.7646 5.87809H58V10.4499H43.379C40.4418 10.7609 34.6063 13.7902 34.7613 23.419C35.084 25.7827 36.7947 30.65 40.7646 32.3761C41.4265 32.6639 41.7716 33.1226 46.9616 33.1226V23.419Z" fill="white"/>
<path d="M0 0V4.38524H58V0H0Z" fill="white"/>
</svg>
